<svg width="12" height="12" viewBox="0 0 12 12" fill="none" xmlns="http://www.w3.org/2000/svg">
<path d="M9.80486 0H2.19254C0.98376 0 0 1.11336 0 2.47921V7.51163C0 8.87749 0.98376 9.98938 2.19254 9.98938H6.96739L7.98987 11.6436C8.12758 11.8673 8.35338 11.9994 8.59478 12C8.83591 12.0006 9.06223 11.8679 9.20125 11.6447L10.2734 9.9286C11.2587 9.68785 12 8.69692 12 7.51163V2.47921C12 1.11336 11.0139 0 9.80486 0ZM6 6.80316C6.35312 6.80316 6.63973 7.13376 6.63973 7.54158C6.63973 7.9494 6.35312 8.27941 6 8.27941C5.64688 8.27941 5.36027 7.9494 5.36027 7.54158C5.36027 7.13376 5.64662 6.80316 6 6.80316ZM5.36209 5.56296V2.51885C5.36209 2.11103 5.63908 1.78043 6 1.78043C6.36118 1.78043 6.63791 2.11103 6.63791 2.51885V5.56296C6.63791 5.97078 6.36118 6.30139 6 6.30139C5.63908 6.30139 5.36209 5.97049 5.36209 5.56296Z" fill="#FF0000"/>
</svg>
