<svg width="12" height="12" viewBox="0 0 12 12" fill="none" xmlns="http://www.w3.org/2000/svg">
<path d="M11.52 0H0.48C0.2145 0 0 0.2145 0 0.48V11.52C0 11.7855 0.2145 12 0.48 12H11.52C11.7855 12 12 11.7855 12 11.52V0.48C12 0.2145 11.7855 0 11.52 0ZM8.7525 3.8055L5.5935 8.1855C5.54935 8.24712 5.49114 8.29734 5.42371 8.33198C5.35628 8.36662 5.28156 8.38469 5.20575 8.38469C5.12994 8.38469 5.05522 8.36662 4.98779 8.33198C4.92036 8.29734 4.86215 8.24712 4.818 8.1855L2.9475 5.5935C2.8905 5.514 2.9475 5.403 3.045 5.403H3.7485C3.9015 5.403 4.047 5.4765 4.137 5.6025L5.205 7.0845L7.563 3.8145C7.653 3.69 7.797 3.615 7.9515 3.615H8.655C8.7525 3.615 8.8095 3.726 8.7525 3.8055Z" fill="#FF0000"/>
</svg>
