<svg width="36" height="36" viewBox="0 0 36 36" fill="none" xmlns="http://www.w3.org/2000/svg">
<path d="M18 0C15.6804 0 13.8 1.8804 13.8 4.2C13.8027 6.51847 15.6816 8.39737 18 8.4C20.3196 8.4 22.2 6.5196 22.2 4.2C22.2 1.8804 20.3196 0 18 0ZM18 7.2C16.3432 7.2 15 5.85682 15 4.2C15.002 2.544 16.344 1.20195 18 1.2C19.6569 1.2 21 2.54317 21 4.2C21 5.85682 19.6569 7.2 18 7.2Z" fill="#910001"/>
<path d="M19.8 9H16.2C13.2191 9.0033 10.8033 11.4191 10.8 14.4V24.6H13.2V36H14.4V22.2H13.2V23.4H12V14.4C12.0027 12.0815 13.8816 10.2026 16.2 10.2H19.8C22.1185 10.2026 23.9974 12.0815 24 14.4V23.4H22.8V22.2H21.6V36H22.8V24.6H25.2V14.4C25.1967 11.4191 22.781 9.0033 19.8 9Z" fill="#910001"/>
<path d="M18.5999 24.5999H17.3999V35.9999H18.5999V24.5999Z" fill="#910001"/>
<path d="M29.9999 6C28.0117 6 26.3999 7.61175 26.3999 9.6C26.4019 11.5874 28.0125 13.1981 29.9999 13.2C31.9882 13.2 33.5999 11.5883 33.5999 9.6C33.5999 7.61175 31.9882 6 29.9999 6ZM29.9999 12C28.6744 12 27.5999 10.9255 27.5999 9.6C27.5999 8.27453 28.6744 7.2 29.9999 7.2C31.3254 7.2 32.3999 8.27453 32.3999 9.6C32.3999 10.9255 31.3254 12 29.9999 12Z" fill="#910001"/>
<path d="M31.7999 13.8H26.3999V15H31.7999C33.4559 15.0019 34.798 16.344 34.7999 18V25.8H33.5999V24.6H32.3999V36H33.5999V27H35.9999V18C35.9973 15.6815 34.1184 13.8026 31.7999 13.8Z" fill="#910001"/>
<path d="M26.4 24.5999V25.7999H24V26.9999H26.4V35.9999H27.6V24.5999H26.4Z" fill="#910001"/>
<path d="M30.5999 27H29.3999V36H30.5999V27Z" fill="#910001"/>
<path d="M5.9999 6C4.01165 6 2.3999 7.61175 2.3999 9.6C2.40185 11.5874 4.01248 13.1981 5.9999 13.2C7.98815 13.2 9.5999 11.5883 9.5999 9.6C9.5999 7.61175 7.98815 6 5.9999 6ZM5.9999 12C4.67443 12 3.5999 10.9255 3.5999 9.6C3.5999 8.27453 4.67443 7.2 5.9999 7.2C7.32538 7.2 8.3999 8.27453 8.3999 9.6C8.3999 10.9255 7.32538 12 5.9999 12Z" fill="#910001"/>
<path d="M4.2 13.8C1.88153 13.8026 0.002625 15.6815 0 18V27H2.4V36H3.6V24.6H2.4V25.8H1.2V18C1.20195 16.344 2.544 15.0019 4.2 15H9.6V13.8H4.2Z" fill="#910001"/>
<path d="M9.5999 25.7999V24.5999H8.3999V35.9999H9.5999V26.9999H11.9999V25.7999H9.5999Z" fill="#910001"/>
<path d="M6.5999 27H5.3999V36H6.5999V27Z" fill="#910001"/>
</svg>
